<?xml version="1.0" encoding="UTF-8" standalone="no"?>
<!-- Created with Inkscape (http://www.inkscape.org/) -->

<svg
   width="160mm"
   height="90mm"
   viewBox="0 0 160 90"
   version="1.1"
   id="svg1"
   inkscape:version="1.3.2 (091e20e, 2023-11-25, custom)"
   sodipodi:docname="objective.svg"
   inkscape:export-filename="objective.pdf"
   inkscape:export-xdpi="254"
   inkscape:export-ydpi="254"
   xml:space="preserve"
   xmlns:inkscape="http://www.inkscape.org/namespaces/inkscape"
   xmlns:sodipodi="http://sodipodi.sourceforge.net/DTD/sodipodi-0.dtd"
   xmlns="http://www.w3.org/2000/svg"
   xmlns:svg="http://www.w3.org/2000/svg"><sodipodi:namedview
     id="namedview1"
     pagecolor="#ffffff"
     bordercolor="#000000"
     borderopacity="0.25"
     inkscape:showpageshadow="2"
     inkscape:pageopacity="0.0"
     inkscape:pagecheckerboard="0"
     inkscape:deskcolor="#d1d1d1"
     inkscape:document-units="mm"
     inkscape:zoom="9.3076612"
     inkscape:cx="174.64108"
     inkscape:cy="208.48417"
     inkscape:window-width="2560"
     inkscape:window-height="1494"
     inkscape:window-x="-11"
     inkscape:window-y="-11"
     inkscape:window-maximized="1"
     inkscape:current-layer="layer1" /><defs
     id="defs1"><rect
       x="302.3622"
       y="-60.16549"
       width="262.33389"
       height="270.70217"
       id="rect3" /><inkscape:path-effect
       effect="bspline"
       id="path-effect71"
       is_visible="true"
       lpeversion="1.3"
       weight="3"
       steps="1"
       helper_size="0"
       apply_no_weight="true"
       apply_with_weight="true"
       only_selected="false"
       uniform="false" /><inkscape:path-effect
       effect="bend_path"
       id="path-effect70"
       is_visible="true"
       lpeversion="1"
       bendpath="M -54.894775,87.617425 H 11.007209"
       prop_scale="1"
       scale_y_rel="false"
       vertical="false"
       hide_knot="false" /><inkscape:perspective
       sodipodi:type="inkscape:persp3d"
       inkscape:vp_x="0 : 45 : 1"
       inkscape:vp_y="0 : 1000 : 0"
       inkscape:vp_z="160 : 45 : 1"
       inkscape:persp3d-origin="80 : 30 : 1"
       id="perspective16" /><inkscape:path-effect
       effect="spiro"
       id="path-effect15"
       is_visible="true"
       lpeversion="1" /><inkscape:path-effect
       effect="spiro"
       id="path-effect14"
       is_visible="true"
       lpeversion="1" /><inkscape:path-effect
       effect="spiro"
       id="path-effect13"
       is_visible="true"
       lpeversion="1" /><inkscape:path-effect
       effect="spiro"
       id="path-effect12"
       is_visible="true"
       lpeversion="1" /><inkscape:path-effect
       effect="spiro"
       id="path-effect10"
       is_visible="true"
       lpeversion="1" /><inkscape:path-effect
       effect="simplify"
       id="path-effect3"
       is_visible="true"
       lpeversion="1.3"
       threshold="3"
       steps="50"
       smooth_angles="360"
       helper_size="10"
       simplify_individual_paths="false"
       simplify_just_coalesce="false" /></defs><g
     inkscape:label="Layer 1"
     inkscape:groupmode="layer"
     id="layer1"
     transform="translate(-0.06252159,0.01022679)"><g
       id="g3"
       transform="translate(-1.2138158,0.05921053)"><rect
         style="fill:#333333;stroke:none;stroke-width:0.606061;stroke-linecap:round"
         id="rect1"
         width="160"
         height="90"
         x="1.2763374"
         y="-0.069437318" /><g
         id="g1" /></g><text
       xml:space="preserve"
       style="font-style:normal;font-variant:normal;font-weight:normal;font-stretch:normal;font-size:2.82222px;font-family:sans-serif;-inkscape-font-specification:'sans-serif, Normal';font-variant-ligatures:normal;font-variant-caps:normal;font-variant-numeric:normal;font-variant-east-asian:normal;fill:#ff00ff;fill-opacity:1;stroke:none;stroke-width:4.96354;stroke-linecap:round;stroke-dasharray:none;stroke-opacity:1"
       x="120.83607"
       y="10.294935"
       id="text93-8-7"
       transform="scale(0.99846028,1.0015421)"><tspan
         sodipodi:role="line"
         style="font-style:normal;font-variant:normal;font-weight:normal;font-stretch:normal;font-size:2.46944px;font-family:Sans;-inkscape-font-specification:'Sans, Normal';font-variant-ligatures:normal;font-variant-caps:normal;font-variant-numeric:normal;font-variant-east-asian:normal;text-align:center;text-anchor:middle;fill:#ffffff;stroke-width:4.96355"
         x="120.83607"
         y="10.294935"
         id="tspan8">This brings us to the idea of an <tspan
   style="fill:#00ff00"
   id="tspan2">Objective</tspan> function</tspan></text><text
       xml:space="preserve"
       style="font-style:normal;font-variant:normal;font-weight:normal;font-stretch:normal;font-size:2.46944px;font-family:sans-serif;-inkscape-font-specification:'sans-serif, Normal';font-variant-ligatures:normal;font-variant-caps:normal;font-variant-numeric:normal;font-variant-east-asian:normal;fill:#ff00ff;fill-opacity:1;stroke:none;stroke-width:4.96354;stroke-linecap:round;stroke-dasharray:none;stroke-opacity:1"
       x="120.74142"
       y="22.836315"
       id="text93-8-7-2-2"
       transform="scale(0.99846028,1.0015421)"><tspan
         sodipodi:role="line"
         style="font-style:normal;font-variant:normal;font-weight:normal;font-stretch:normal;font-size:2.46944px;font-family:sans-serif;-inkscape-font-specification:'sans-serif, Normal';font-variant-ligatures:normal;font-variant-caps:normal;font-variant-numeric:normal;font-variant-east-asian:normal;text-align:center;text-anchor:middle;fill:#ffffff;stroke-width:4.96355"
         x="120.74142"
         y="22.836315"
         id="tspan9-2">J(path) = sum of costs</tspan><tspan
         sodipodi:role="line"
         style="font-style:normal;font-variant:normal;font-weight:normal;font-stretch:normal;font-size:2.46944px;font-family:sans-serif;-inkscape-font-specification:'sans-serif, Normal';font-variant-ligatures:normal;font-variant-caps:normal;font-variant-numeric:normal;font-variant-east-asian:normal;text-align:center;text-anchor:middle;fill:#ffffff;stroke-width:4.96355"
         x="120.74142"
         y="25.923115"
         id="tspan3" /><tspan
         sodipodi:role="line"
         style="font-style:normal;font-variant:normal;font-weight:normal;font-stretch:normal;font-size:2.46944px;font-family:sans-serif;-inkscape-font-specification:'sans-serif, Normal';font-variant-ligatures:normal;font-variant-caps:normal;font-variant-numeric:normal;font-variant-east-asian:normal;text-align:center;text-anchor:middle;fill:#ffffff;stroke-width:4.96355"
         x="120.74142"
         y="29.009914"
         id="tspan4">What is a simple cost we can minimize?</tspan><tspan
         sodipodi:role="line"
         style="font-style:normal;font-variant:normal;font-weight:normal;font-stretch:normal;font-size:2.46944px;font-family:sans-serif;-inkscape-font-specification:'sans-serif, Normal';font-variant-ligatures:normal;font-variant-caps:normal;font-variant-numeric:normal;font-variant-east-asian:normal;text-align:center;text-anchor:middle;fill:#ffffff;stroke-width:4.96355"
         x="120.74142"
         y="32.096718"
         id="tspan5" /><tspan
         sodipodi:role="line"
         style="font-style:normal;font-variant:normal;font-weight:normal;font-stretch:normal;font-size:2.46944px;font-family:sans-serif;-inkscape-font-specification:'sans-serif, Normal';font-variant-ligatures:normal;font-variant-caps:normal;font-variant-numeric:normal;font-variant-east-asian:normal;text-align:center;text-anchor:middle;fill:#00ff00;stroke-width:4.96355"
         x="120.74142"
         y="35.183517"
         id="tspan6">J(path) = total distance traveled</tspan></text><text
       xml:space="preserve"
       style="font-style:normal;font-variant:normal;font-weight:normal;font-stretch:normal;font-size:2.46944px;line-height:1.3;font-family:sans-serif;-inkscape-font-specification:'sans-serif, Normal';font-variant-ligatures:normal;font-variant-caps:normal;font-variant-numeric:normal;font-variant-east-asian:normal;fill:#ff00ff;fill-opacity:1;stroke:none;stroke-width:4.96354;stroke-linecap:round;stroke-dasharray:none;stroke-opacity:1"
       x="120.73103"
       y="47.358982"
       id="text93-8-7-2-2-6"
       transform="scale(0.99846028,1.0015421)"><tspan
         sodipodi:role="line"
         style="font-style:normal;font-variant:normal;font-weight:normal;font-stretch:normal;font-size:2.46944px;line-height:1.3;font-family:sans-serif;-inkscape-font-specification:'sans-serif, Normal';font-variant-ligatures:normal;font-variant-caps:normal;font-variant-numeric:normal;font-variant-east-asian:normal;text-align:center;text-anchor:middle;fill:#ffffff;stroke-width:4.96355"
         x="120.73103"
         y="47.358982"
         id="tspan12">Realistically, we can't evaluate every path...</tspan><tspan
         sodipodi:role="line"
         style="font-style:normal;font-variant:normal;font-weight:normal;font-stretch:normal;font-size:2.46944px;line-height:1.3;font-family:sans-serif;-inkscape-font-specification:'sans-serif, Normal';font-variant-ligatures:normal;font-variant-caps:normal;font-variant-numeric:normal;font-variant-east-asian:normal;text-align:center;text-anchor:middle;fill:#ffffff;stroke-width:4.96355"
         x="120.73103"
         y="50.569256"
         id="tspan10">but we can rule out bad ones</tspan></text><text
       xml:space="preserve"
       style="font-style:normal;font-variant:normal;font-weight:normal;font-stretch:normal;font-size:2.46944px;line-height:1.3;font-family:sans-serif;-inkscape-font-specification:'sans-serif, Normal';font-variant-ligatures:normal;font-variant-caps:normal;font-variant-numeric:normal;font-variant-east-asian:normal;fill:#ff00ff;fill-opacity:1;stroke:none;stroke-width:4.96354;stroke-linecap:round;stroke-dasharray:none;stroke-opacity:1"
       x="120.68521"
       y="60.615402"
       id="text93-8-7-2-2-6-6"
       transform="scale(0.99846028,1.0015421)"><tspan
         sodipodi:role="line"
         style="font-style:normal;font-variant:normal;font-weight:normal;font-stretch:normal;font-size:2.46944px;line-height:1.3;font-family:sans-serif;-inkscape-font-specification:'sans-serif, Normal';font-variant-ligatures:normal;font-variant-caps:normal;font-variant-numeric:normal;font-variant-east-asian:normal;text-align:center;text-anchor:middle;fill:#ffffff;stroke-width:4.96355"
         x="120.68521"
         y="60.615402"
         id="tspan12-0">How can we guess how (un)favorable an</tspan><tspan
         sodipodi:role="line"
         style="font-style:normal;font-variant:normal;font-weight:normal;font-stretch:normal;font-size:2.46944px;line-height:1.3;font-family:sans-serif;-inkscape-font-specification:'sans-serif, Normal';font-variant-ligatures:normal;font-variant-caps:normal;font-variant-numeric:normal;font-variant-east-asian:normal;text-align:center;text-anchor:middle;fill:#ffffff;stroke-width:4.96355"
         x="120.68521"
         y="63.825676"
         id="tspan1">intermediate position is?</tspan></text><text
       xml:space="preserve"
       style="font-style:normal;font-variant:normal;font-weight:normal;font-stretch:normal;font-size:2.46944px;font-family:sans-serif;-inkscape-font-specification:'sans-serif, Normal';font-variant-ligatures:normal;font-variant-caps:normal;font-variant-numeric:normal;font-variant-east-asian:normal;fill:#ff00ff;fill-opacity:1;stroke:none;stroke-width:4.96354;stroke-linecap:round;stroke-dasharray:none;stroke-opacity:1"
       x="120.69122"
       y="74.319168"
       id="text93-8-7-2-2-6-6-2"
       transform="scale(0.99846028,1.0015421)"><tspan
         sodipodi:role="line"
         style="font-style:normal;font-variant:normal;font-weight:normal;font-stretch:normal;font-size:2.46944px;font-family:sans-serif;-inkscape-font-specification:'sans-serif, Normal';font-variant-ligatures:normal;font-variant-caps:normal;font-variant-numeric:normal;font-variant-east-asian:normal;text-align:center;text-anchor:middle;fill:#ffffff;stroke-width:4.96355"
         x="120.69122"
         y="74.319168"
         id="tspan1-4">We can use a heuristic:</tspan><tspan
         sodipodi:role="line"
         style="font-style:normal;font-variant:normal;font-weight:normal;font-stretch:normal;font-size:2.46944px;font-family:sans-serif;-inkscape-font-specification:'sans-serif, Normal';font-variant-ligatures:normal;font-variant-caps:normal;font-variant-numeric:normal;font-variant-east-asian:normal;text-align:center;text-anchor:middle;fill:#ffffff;stroke-width:4.96355"
         x="120.69122"
         y="77.405968"
         id="tspan7" /><tspan
         sodipodi:role="line"
         style="font-style:normal;font-variant:normal;font-weight:normal;font-stretch:normal;font-size:2.46944px;font-family:sans-serif;-inkscape-font-specification:'sans-serif, Normal';font-variant-ligatures:normal;font-variant-caps:normal;font-variant-numeric:normal;font-variant-east-asian:normal;text-align:center;text-anchor:middle;fill:#ffff00;stroke-width:4.96355"
         x="120.69122"
         y="80.492767"
         id="tspan9">H(position) = Euclidean distance to the goal</tspan></text><text
       xml:space="preserve"
       transform="matrix(0.26458333,0,0,0.26458333,0.06252159,-0.01022679)"
       id="text3"
       style="font-size:96px;font-family:'Times New Roman';-inkscape-font-specification:'Times New Roman, Normal';white-space:pre;shape-inside:url(#rect3);display:inline;fill:#ffffff;stroke:#ffffff;stroke-width:3.02362;stroke-linecap:round" /><path
       d="M 77.682303,89.649124"
       style="opacity:0.5;fill:#ff0000;fill-opacity:1;stroke:#ffff00;stroke-width:0.7;stroke-linecap:round;stroke-dasharray:none;stroke-dashoffset:0;stroke-opacity:1"
       id="path1-8" /><g
       style="fill:none"
       id="g2"
       transform="matrix(0.3125,0,0,0.3125,8.2460738,6.3046854)"><rect
         width="224"
         height="248"
         fill="transparent"
         id="rect1-9"
         x="0"
         y="0" /><path
         fill-rule="evenodd"
         clip-rule="evenodd"
         d="M 104,100 H 84 v 32 h 56 v -32 h -20 v 4 h 16 v 24 H 88 v -24 h 16 z m -1,1 H 85 v 30 h 54 v -30 h -18 v 2 h 16 v 26 H 87 v -26 h 16 z"
         fill="#2121ff"
         id="path1" /><path
         d="m 104,103 v -2 h 16 v 2 z"
         fill="#fcb5ff"
         id="path2" /><path
         d="m 40,108 h 2 v 16 h -2 z"
         fill="#808080"
         id="path3" /><path
         d="m 182,108 h 2 v 16 h -2 z"
         fill="#808080"
         id="path4" /><path
         fill-rule="evenodd"
         clip-rule="evenodd"
         d="m 22,52 h 20 v 1 H 22 Z m -1,2 h 1 v -1 h -1 z m 0,4 v -4 h -1 v 4 z m 1,1 v -1 h -1 v 1 z m 20,0 H 22 v 1 h 20 z m 1,-1 h -1 v 1 h 1 z m 0,-4 h -1 v -1 h 1 z m 0,0 v 4 h 1 v -4 z"
         fill="#2121ff"
         id="path5" /><path
         fill-rule="evenodd"
         clip-rule="evenodd"
         d="m 182,52 h 20 v 1 h -20 z m -1,2 h 1 v -1 h -1 z m 0,4 v -4 h -1 v 4 z m 1,1 v -1 h -1 v 1 z m 20,0 h -20 v 1 h 20 z m 1,-1 h -1 v 1 h 1 z m 0,-4 h -1 v -1 h 1 z m 0,0 v 4 h 1 v -4 z"
         fill="#2121ff"
         id="path6" /><path
         fill-rule="evenodd"
         clip-rule="evenodd"
         d="m 62,124 h 4 v 1 h -4 z m -1,2 h 1 v -1 h -1 z m 0,28 v -28 h -1 v 28 z m 1,1 v -1 h -1 v 1 z m 4,0 h -4 v 1 h 4 z m 1,-1 h -1 v 1 h 1 z m 0,-28 h -1 v -1 h 1 z m 0,0 v 28 h 1 v -28 z"
         fill="#2121ff"
         id="path7" /><path
         fill-rule="evenodd"
         clip-rule="evenodd"
         d="m 158,124 h 4 v 1 h -4 z m -1,2 h 1 v -1 h -1 z m 0,28 v -28 h -1 v 28 z m 1,1 v -1 h -1 v 1 z m 4,0 h -4 v 1 h 4 z m 1,-1 h -1 v 1 h 1 z m 0,-28 h -1 v -1 h 1 z m 0,0 v 28 h 1 v -28 z"
         fill="#2121ff"
         id="path8" /><path
         fill-rule="evenodd"
         clip-rule="evenodd"
         d="m 164,174 v 4 h -1 v -4 z m -2,-1 v 1 h 1 v -1 z m -28,0 h 28 v -1 h -28 z m -1,1 h 1 v -1 h -1 z m 0,4 v -4 h -1 v 4 z m 1,1 v -1 h -1 v 1 z m 28,0 v -1 h 1 v 1 z m 0,0 h -28 v 1 h 28 z"
         fill="#2121ff"
         id="path9" /><path
         fill-rule="evenodd"
         clip-rule="evenodd"
         d="m 92,174 v 4 h -1 v -4 z m -2,-1 v 1 h 1 v -1 z m -28,0 h 28 v -1 H 62 Z m -1,1 h 1 v -1 h -1 z m 0,4 v -4 h -1 v 4 z m 1,1 v -1 h -1 v 1 z m 28,0 v -1 h 1 v 1 z m 0,0 H 62 v 1 h 28 z"
         fill="#2121ff"
         id="path10" /><path
         fill-rule="evenodd"
         clip-rule="evenodd"
         d="m 22,20 h 20 v 1 H 22 Z m -1,2 h 1 v -1 h -1 z m 0,12 V 22 h -1 v 12 z m 1,1 v -1 h -1 v 1 z m 20,0 H 22 v 1 h 20 z m 1,-1 h -1 v 1 h 1 z m 0,-12 h -1 v -1 h 1 z m 0,0 v 12 h 1 V 22 Z"
         fill="#2121ff"
         id="path11" /><path
         fill-rule="evenodd"
         clip-rule="evenodd"
         d="m 182,20 h 20 v 1 h -20 z m -1,2 h 1 v -1 h -1 z m 0,12 V 22 h -1 v 12 z m 1,1 v -1 h -1 v 1 z m 20,0 h -20 v 1 h 20 z m 1,-1 h -1 v 1 h 1 z m 0,-12 h -1 v -1 h 1 z m 0,0 v 12 h 1 V 22 Z"
         fill="#2121ff"
         id="path12" /><path
         fill-rule="evenodd"
         clip-rule="evenodd"
         d="m 62,20 h 28 v 1 H 62 Z m -1,2 h 1 v -1 h -1 z m 0,12 V 22 h -1 v 12 z m 1,1 v -1 h -1 v 1 z m 28,0 H 62 v 1 h 28 z m 1,-1 h -1 v 1 h 1 z m 0,-12 h -1 v -1 h 1 z m 0,0 v 12 h 1 V 22 Z"
         fill="#2121ff"
         id="path13" /><path
         fill-rule="evenodd"
         clip-rule="evenodd"
         d="m 134,20 h 28 v 1 h -28 z m -1,2 h 1 v -1 h -1 z m 0,12 V 22 h -1 v 12 z m 1,1 v -1 h -1 v 1 z m 28,0 h -28 v 1 h 28 z m 1,-1 h -1 v 1 h 1 z m 0,-12 h -1 v -1 h 1 z m 0,0 v 12 h 1 V 22 Z"
         fill="#2121ff"
         id="path14" /><path
         fill-rule="evenodd"
         clip-rule="evenodd"
         d="m 62,52 h 4 v 1 h -4 z m -1,2 h 1 v -1 h -1 z m 0,52 V 54 h -1 v 52 z m 1,1 v -1 h -1 v 1 z m 4,0 h -4 v 1 h 4 z m 1,-1 h -1 v 1 h 1 z m 1,-21 h -1 v 21 h 1 z m 1,-1 h -1 v 1 h 1 z M 90,83 H 69 v 1 h 21 z m 1,-1 h -1 v 1 h 1 z m 0,-4 v 4 h 1 v -4 z m -1,-1 v 1 h 1 V 77 Z M 69,76 v 1 h 21 v -1 z m -1,-1 v 1 h 1 V 75 Z M 67,54 h -1 v -1 h 1 z m 0,0 v 21 h 1 V 54 Z"
         fill="#2121ff"
         id="path15" /><path
         fill-rule="evenodd"
         clip-rule="evenodd"
         d="m 140,54 v 4 h -1 v -4 z m -2,-1 v 1 h 1 v -1 z m -52,0 h 52 V 52 H 86 Z m -1,1 h 1 v -1 h -1 z m 0,4 v -4 h -1 v 4 z m 1,1 v -1 h -1 v 1 z m 21,1 V 59 H 86 v 1 z m 1,1 v -1 h -1 v 1 z m 1,21 V 61 h -1 v 21 z m 1,1 v -1 h -1 v 1 z m 4,0 h -4 v 1 h 4 z m 1,-1 h -1 v 1 h 1 z m 1,-21 h -1 v 21 h 1 z m 1,-1 h -1 v 1 h 1 z m 21,-1 v -1 h 1 v 1 z m 0,0 h -21 v 1 h 21 z"
         fill="#2121ff"
         id="path16" /><path
         fill-rule="evenodd"
         clip-rule="evenodd"
         d="m 162,108 h -4 v -1 h 4 z m 1,-2 h -1 v 1 h 1 z m 0,-52 v 52 h 1 V 54 Z m -1,-1 v 1 h 1 v -1 z m -4,0 h 4 v -1 h -4 z m -1,1 h 1 v -1 h -1 z m -1,21 h 1 V 54 h -1 z m -1,1 h 1 v -1 h -1 z m -21,1 h 21 v -1 h -21 z m -1,1 h 1 v -1 h -1 z m 0,4 v -4 h -1 v 4 z m 1,1 v -1 h -1 v 1 z m 21,1 v -1 h -21 v 1 z m 1,1 v -1 h -1 v 1 z m 1,21 h 1 v 1 h -1 z m 0,0 V 85 h -1 v 21 z"
         fill="#2121ff"
         id="path17" /><path
         fill-rule="evenodd"
         clip-rule="evenodd"
         d="m 140,150 v 4 h -1 v -4 z m -2,-1 v 1 h 1 v -1 z m -52,0 h 52 v -1 H 86 Z m -1,1 h 1 v -1 h -1 z m 0,4 v -4 h -1 v 4 z m 1,1 v -1 h -1 v 1 z m 21,1 v -1 H 86 v 1 z m 1,1 v -1 h -1 v 1 z m 1,21 v -21 h -1 v 21 z m 1,1 v -1 h -1 v 1 z m 4,0 h -4 v 1 h 4 z m 1,-1 h -1 v 1 h 1 z m 1,-21 h -1 v 21 h 1 z m 1,-1 h -1 v 1 h 1 z m 21,-1 v -1 h 1 v 1 z m 0,0 h -21 v 1 h 21 z"
         fill="#2121ff"
         id="path18" /><path
         fill-rule="evenodd"
         clip-rule="evenodd"
         d="m 140,198 v 4 h -1 v -4 z m -2,-1 v 1 h 1 v -1 z m -52,0 h 52 v -1 H 86 Z m -1,1 h 1 v -1 h -1 z m 0,4 v -4 h -1 v 4 z m 1,1 v -1 h -1 v 1 z m 21,1 v -1 H 86 v 1 z m 1,1 v -1 h -1 v 1 z m 1,21 v -21 h -1 v 21 z m 1,1 v -1 h -1 v 1 z m 4,0 h -4 v 1 h 4 z m 1,-1 h -1 v 1 h 1 z m 1,-21 h -1 v 21 h 1 z m 1,-1 h -1 v 1 h 1 z m 21,-1 v -1 h 1 v 1 z m 0,0 h -21 v 1 h 21 z"
         fill="#2121ff"
         id="path19" /><path
         fill-rule="evenodd"
         clip-rule="evenodd"
         d="m 22,172 h 20 v 1 H 22 Z m -1,2 h 1 v -1 h -1 z m 0,4 v -4 h -1 v 4 z m 1,1 v -1 h -1 v 1 z m 13,1 v -1 H 22 v 1 z m 1,1 v -1 h -1 v 1 z m 1,21 v -21 h -1 v 21 z m 1,1 v -1 h -1 v 1 z m 4,0 h -4 v 1 h 4 z m 1,-1 h -1 v 1 h 1 z m 0,-28 h -1 v -1 h 1 z m 0,0 v 28 h 1 v -28 z"
         fill="#2121ff"
         id="path20" /><path
         fill-rule="evenodd"
         clip-rule="evenodd"
         d="m 202,172 h -20 v 1 h 20 z m 1,2 h -1 v -1 h 1 z m 0,4 v -4 h 1 v 4 z m -1,1 v -1 h 1 v 1 z m -13,1 v -1 h 13 v 1 z m -1,1 v -1 h 1 v 1 z m -1,21 v -21 h 1 v 21 z m -1,1 v -1 h 1 v 1 z m -4,0 h 4 v 1 h -4 z m -1,-1 h 1 v 1 h -1 z m 0,-28 h 1 v -1 h -1 z m 0,0 v 28 h -1 v -28 z"
         fill="#2121ff"
         id="path21" /><path
         fill-rule="evenodd"
         clip-rule="evenodd"
         d="m 62,196 h 4 v 1 h -4 z m -1,2 h 1 v -1 h -1 z m -1,21 h 1 v -21 h -1 z m -1,1 h 1 v -1 h -1 z m -37,1 h 37 v -1 H 22 Z m -1,1 h 1 v -1 h -1 z m 0,4 v -4 h -1 v 4 z m 1,1 v -1 h -1 v 1 z m 68,0 H 22 v 1 h 68 z m 1,-1 h -1 v 1 h 1 z m 0,-4 v 4 h 1 v -4 z m -1,-1 v 1 h 1 v -1 z m -21,-1 v 1 h 21 v -1 z m -1,-1 v 1 h 1 v -1 z m -1,-21 h -1 v -1 h 1 z m 0,0 v 21 h 1 v -21 z"
         fill="#2121ff"
         id="path22" /><path
         fill-rule="evenodd"
         clip-rule="evenodd"
         d="m 162,196 h -4 v 1 h 4 z m 1,2 h -1 v -1 h 1 z m 1,21 h -1 v -21 h 1 z m 1,1 h -1 v -1 h 1 z m 37,1 h -37 v -1 h 37 z m 1,1 h -1 v -1 h 1 z m 0,4 v -4 h 1 v 4 z m -1,1 v -1 h 1 v 1 z m -68,0 h 68 v 1 h -68 z m -1,-1 h 1 v 1 h -1 z m 0,-4 v 4 h -1 v -4 z m 1,-1 v 1 h -1 v -1 z m 21,-1 v 1 h -21 v -1 z m 1,-1 v 1 h -1 v -1 z m 1,-21 h 1 v -1 h -1 z m 0,0 v 21 h -1 v -21 z"
         fill="#2121ff"
         id="path23" /><path
         fill-rule="evenodd"
         clip-rule="evenodd"
         d="m 0,124 h 42 v 1 H 0 Z m 0,3 v 1 h 40 v 24 H 4 v 1 H 2 v 1 H 1 v 2 H 0 v 88 h 1 v 2 h 1 v 1 h 2 v 1 h 216 v -1 h 2 v -1 h 1 v -2 h 1 v -88 h -1 v -2 h -1 v -1 h -2 v -1 h -36 v -24 h 40 v -1 h -40 v 1 h -1 v 24 h 1 v 1 h 36 v 1 h 2 v 2 h 1 v 88 h -1 v 2 h -2 v 1 H 4 v -1 H 2 v -2 H 1 v -88 h 1 v -2 h 2 v -1 h 36 v -1 h 1 v -24 h -1 v -1 z m 224,-2 v -1 h -42 v 1 h -1 v 1 h -1 v 28 h 1 v 1 h 1 v 1 h 37 v 1 h 1 v 38 h -1 v 1 h -13 v 1 h -1 v 1 h -1 v 4 h 1 v 1 h 1 v 1 h 13 v 1 h 1 v 38 h -1 v 1 H 5 v -1 H 4 v -38 h 1 v -1 h 13 v -1 h 1 v -1 h 1 v -4 h -1 v -1 h -1 v -1 H 5 v -1 H 4 v -38 h 1 v -1 h 37 v -1 h 1 v -1 h 1 v -28 h -1 v -1 h -1 v 1 h 1 v 28 h -1 v 1 H 5 v 1 H 4 v 1 H 3 v 38 h 1 v 1 h 1 v 1 h 13 v 1 h 1 v 4 h -1 v 1 H 5 v 1 H 4 v 1 H 3 v 38 h 1 v 1 h 1 v 1 h 214 v -1 h 1 v -1 h 1 v -38 h -1 v -1 h -1 v -1 h -13 v -1 h -1 v -4 h 1 v -1 h 13 v -1 h 1 v -1 h 1 v -38 h -1 v -1 h -1 v -1 h -37 v -1 h -1 v -28 h 1 v -1 z"
         fill="#2121ff"
         id="path24" /><path
         fill-rule="evenodd"
         clip-rule="evenodd"
         d="m 0,108 h 42 v -1 h 1 v -1 h 1 V 78 H 43 V 77 H 42 V 76 H 5 V 75 H 4 V 5 H 5 V 4 h 102 v 1 h 1 v 29 h 1 v 1 h 1 v 1 h 4 v -1 h 1 v -1 h 1 V 5 h 1 V 4 h 102 v 1 h 1 v 70 h -1 v 1 h -37 v 1 h -1 v 1 h -1 v 28 h 1 v 1 h 1 v 1 h 42 v -1 h -42 v -1 h -1 V 78 h 1 v -1 h 37 v -1 h 1 v -1 h 1 V 5 h -1 V 4 h -1 V 3 H 117 v 1 h -1 v 1 h -1 v 29 h -1 v 1 h -4 v -1 h -1 V 5 h -1 V 4 h -1 V 3 H 5 V 4 H 4 V 5 H 3 v 70 h 1 v 1 h 1 v 1 h 37 v 1 h 1 v 28 h -1 v 1 H 0 Z m 0,-3 h 40 v -1 h 1 V 80 H 40 V 79 H 4 V 78 H 2 V 76 H 1 V 4 H 2 V 2 H 4 V 1 h 216 v 1 h 2 v 2 h 1 v 72 h -1 v 2 h -2 v 1 h -36 v 1 h -1 v 24 h 1 v 1 h 40 v -1 H 184 V 80 h 36 v -1 h 2 v -1 h 1 v -2 h 1 V 4 h -1 V 2 h -1 V 1 h -2 V 0 H 4 V 1 H 2 V 2 H 1 V 4 H 0 v 72 h 1 v 2 h 1 v 1 h 2 v 1 h 36 v 24 H 0 Z"
         fill="#2121ff"
         id="path25" /></g><path
       d="M 71.996071,27.857843 40.591306,65.10617"
       style="opacity:0.5;fill:#ff0000;fill-opacity:1;stroke:#ffff00;stroke-width:0.4;stroke-linecap:round;stroke-dasharray:0.4, 1.2;stroke-dashoffset:0;stroke-opacity:1"
       id="path1-9-8"
       sodipodi:nodetypes="cc" /><path
       style="fill:#ffff00;stroke:#1a1a1a;stroke-width:0;stroke-linecap:round;stroke-dasharray:none"
       id="path26"
       sodipodi:type="arc"
       sodipodi:cx="69.469421"
       sodipodi:cy="32.564812"
       sodipodi:rx="1.9417201"
       sodipodi:ry="1.8624662"
       sodipodi:start="0"
       sodipodi:end="5.2184108"
       sodipodi:arc-type="slice"
       d="m 71.411142,32.564812 a 1.9417201,1.8624662 0 0 1 -1.43093,1.796868 1.9417201,1.8624662 0 0 1 -2.183772,-0.851496 1.9417201,1.8624662 0 0 1 0.281998,-2.24486 1.9417201,1.8624662 0 0 1 2.332138,-0.329574 l -0.941155,1.629062 z"
       transform="rotate(32.942451)" /><circle
       style="fill:#ffffff;stroke:none;stroke-width:1.57817;stroke-linecap:round;stroke-dasharray:none"
       id="path6-1"
       cx="71.996071"
       cy="27.857843"
       r="0.5" /></g></svg>
